Coordinates
version=1
nRows=7
nColumns=38
inDegrees=yes

Units are S.I. units (second, meters, Newtons, ...)
Angles are in degrees.

endheader
time	pelvis_tilt	pelvis_list	pelvis_rotation	pelvis_tx	pelvis_ty	pelvis_tz	hip_flexion_r	hip_adduction_r	hip_rotation_r	knee_angle_r	ankle_angle_r	subtalar_angle_r	mtp_angle_r	hip_flexion_l	hip_adduction_l	hip_rotation_l	knee_angle_l	ankle_angle_l	subtalar_angle_l	mtp_angle_l	lumbar_extension	lumbar_bending	lumbar_rotation	arm_flex_r	arm_add_r	arm_rot_r	elbow_flex_r	pro_sup_r	wrist_flex_r	wrist_dev_r	arm_flex_l	arm_add_l	arm_rot_l	elbow_flex_l	pro_sup_l	wrist_flex_l	wrist_dev_l
      1.36000000	     -2.95546612	     -2.34584424	      3.75799520	      0.17816228	      0.94388696	     -0.27326866	     28.27915905	      2.88989493	     -7.02008254	    -26.62487293	      1.41598737	    -11.01589349	      0.00000000	      0.24509434	     -6.74635774	     -6.78583709	    -49.72846419	    -11.40800211	     -2.92477772	      0.00000000	     -0.21095721	      3.48442018	    -10.97692827	     -4.75670481	     -3.45728370	     33.24000695	     21.00591761	     36.22624262	      0.00000000	      0.00000000	      7.06771827	    -12.22746576	     41.90477646	     38.10626035	     36.22624262	      0.00000000	      0.00000000
      1.37000000	     -2.82578913	     -2.42345115	      3.91975273	      0.19072428	      0.94533140	     -0.27127418	     27.52840380	      3.19085512	     -6.93466474	    -27.06008690	      2.47679217	    -11.34610932	      0.00000000	      1.96951711	     -7.76536019	     -7.63104133	    -52.96603110	    -14.00353336	     -3.57074526	      0.00000000	     -0.30674552	      3.40092789	    -10.84628623	     -4.38750513	     -3.42329326	     33.36389741	     21.09742085	     36.26782854	      0.00000000	      0.00000000	      6.82562659	    -12.16745155	     41.89831248	     38.01780376	     36.26782854	      0.00000000	      0.00000000
      1.38000000	     -2.88992508	     -2.61657797	      4.09503960	      0.20293257	      0.94656626	     -0.26940892	     26.89905681	      3.57323587	     -6.96570052	    -27.23983556	      3.20740696	    -11.60726865	      0.00000000	      3.90609506	     -8.98219244	     -8.63210500	    -56.03888348	    -15.98056971	     -4.93764934	      0.00000000	     -0.17844858	      3.43575927	    -10.71878168	     -3.88677633	     -3.43251114	     33.55056838	     21.28397228	     36.31942161	      0.00000000	      0.00000000	      6.53609650	    -12.06509282	     41.88636033	     37.83231531	     36.31942161	      0.00000000	      0.00000000
      1.39000000	     -2.94538452	     -2.71700719	      4.36044751	      0.21497246	      0.94795138	     -0.26803137	     26.17830917	      3.78484376	     -7.16034327	    -27.27774884	      3.86138343	    -11.85730763	      0.00000000	      5.66423482	     -9.49403040	     -8.92391134	    -58.46653456	    -16.89492031	     -8.16612366	      0.00000000	     -0.06787217	      3.38798343	    -10.61311399	     -3.58086350	     -3.62368995	     34.08973003	     21.53642532	     36.45389497	      0.00000000	      0.00000000	      6.33154360	    -11.77691831	     41.79867244	     37.26955731	     36.45389497	      0.00000000	      0.00000000
      1.40000000	     -2.94683850	     -2.54967201	      4.55570987	      0.22694699	      0.94950357	     -0.26689295	     25.39046270	      3.71479295	     -7.18676949	    -27.38110079	      4.80344273	    -11.69121691	      0.00000000	      7.18548866	     -9.32908676	     -8.74975609	    -60.34435883	    -16.14649254	    -11.22275467	      0.00000000	     -0.04560161	      3.05882103	    -10.40926573	     -3.13530089	     -3.78398359	     34.64441388	     21.82147643	     36.58834232	      0.00000000	      0.00000000	      6.20129538	    -11.52573070	     41.78266136	     36.62008639	     36.58834232	      0.00000000	      0.00000000
      1.41000000	     -2.89365702	     -2.37112469	      4.67254553	      0.23887925	      0.95125901	     -0.26572057	     24.47052405	      3.70286212	     -7.04575267	    -27.32785245	      5.66411599	    -11.63946890	      0.00000000	      8.61035259	     -9.11664489	     -8.52220191	    -61.95106838	    -14.18794153	    -13.23967524	      0.00000000	     -0.09431666	      2.73661722	    -10.06944272	     -2.67188580	     -3.87505940	     34.80439172	     21.98175835	     36.62874977	      0.00000000	      0.00000000	      6.07561028	    -11.38223134	     41.81975890	     36.37906088	     36.62874977	      0.00000000	      0.00000000
      1.42000000	     -2.83268637	     -2.02687418	      4.78007424	      0.25078664	      0.95326233	     -0.26474599	     23.60177587	      3.33576764	     -7.44412575	    -27.45897145	      6.71462820	    -10.53709300	      0.00000000	      9.95971944	     -8.47161171	     -8.10279165	    -63.11143594	    -12.39108132	    -15.99905887	      0.00000000	     -0.13821261	      2.22813385	     -9.73952276	     -2.18739791	     -4.55683374	     38.01887462	     22.71113065	     37.32071139	      0.00000000	      0.00000000	      6.52265933	    -10.56563911	     42.76729560	     33.20506945	     37.32071139	      0.00000000	      0.00000000
